<?xml version="1.0" encoding="UTF-8"?><svg id="Layer_2" xmlns="http://www.w3.org/2000/svg" xmlns:xlink="http://www.w3.org/1999/xlink" viewBox="0 0 224.37 74.39"><defs><style>.cls-1{fill:url(#radial-gradient);opacity:.4;stroke-width:0px;}</style><radialGradient id="radial-gradient" cx="112.18" cy="37.2" fx="112.18" fy="37.2" r="83.57" gradientUnits="userSpaceOnUse"><stop offset="0" stop-color="#b5f2ff"/><stop offset=".11" stop-color="#abedfb"/><stop offset=".29" stop-color="#91e0f1"/><stop offset=".52" stop-color="#68cbe1"/><stop offset=".78" stop-color="#2eaecb"/><stop offset=".84" stop-color="#23a9c7"/></radialGradient></defs><g id="Layer_1-2"><path class="cls-1" d="m200.48,12.74c-5.18,0-9.97.88-13.89,2.38.27-.77.42-1.56.42-2.38,0-7.04-10.69-12.74-23.89-12.74s-23.89,5.7-23.89,12.74c0,1.24.34,2.43.95,3.56-.07.01-.14.02-.21.03-4.08-6.54-15.44-11.25-28.83-11.25-16.82,0-30.45,7.42-30.45,16.57,0,.26.01.52.04.78-5.73-1.81-12.7-2.88-20.22-2.88-.72,0-1.44.01-2.15.03-4.35-4.95-14.85-8.44-27.12-8.44C15.09,11.14,1.99,17.21,1.99,24.69c0,1.21.35,2.38.99,3.5-1.03.23-2.03.51-2.98.82v30.53c.72.21,1.47.41,2.24.58-.15.29-.25.59-.25.9,0,3.3,8.96,5.97,20.02,5.97s20.02-2.67,20.02-5.97c0-2.55-5.35-4.71-12.87-5.57,1.33-1.32,2.1-2.79,2.1-4.35,0-.77-.2-1.52-.55-2.24,1.08-.96,1.96-2.01,2.61-3.12,5.69,3.1,13.92,5.21,23.24,5.68-.49,1.18-.75,2.39-.75,3.63,0,10.68,18.83,19.34,42.05,19.34,19.6,0,36.06-6.17,40.73-14.51,4.93.9,10.24,1.39,15.79,1.39,25.46,0,46.09-10.32,46.09-23.05,13.19,0,23.89-5.7,23.89-12.74s-10.69-12.74-23.89-12.74Z"/></g></svg>