<?xml version="1.0" encoding="UTF-8"?><svg id="Layer_2" xmlns="http://www.w3.org/2000/svg" xmlns:xlink="http://www.w3.org/1999/xlink" viewBox="0 0 122.02 116.98"><defs><style>.cls-1{stroke:url(#linear-gradient-8);}.cls-1,.cls-2,.cls-3,.cls-4,.cls-5,.cls-6,.cls-7,.cls-8,.cls-9,.cls-10,.cls-11,.cls-12,.cls-13,.cls-14,.cls-15,.cls-16,.cls-17,.cls-18,.cls-19,.cls-20,.cls-21,.cls-22,.cls-23,.cls-24,.cls-25,.cls-26,.cls-27,.cls-28,.cls-29,.cls-30,.cls-31,.cls-32,.cls-33,.cls-34,.cls-35,.cls-36,.cls-37,.cls-38,.cls-39,.cls-40,.cls-41,.cls-42,.cls-43,.cls-44,.cls-45,.cls-46,.cls-47,.cls-48,.cls-49,.cls-50,.cls-51,.cls-52,.cls-53,.cls-54,.cls-55{fill:#a53737;stroke-miterlimit:10;}.cls-2{stroke:url(#linear-gradient-30);}.cls-3{stroke:url(#linear-gradient-24);}.cls-4{stroke:url(#linear-gradient-33);}.cls-5{stroke:url(#linear-gradient-49);}.cls-6{stroke:url(#linear-gradient-6);}.cls-7{stroke:url(#linear-gradient-9);}.cls-8{stroke:url(#linear-gradient-28);}.cls-9{stroke:url(#linear-gradient-3);}.cls-10{stroke:url(#linear-gradient-26);}.cls-11{stroke:url(#linear-gradient-21);}.cls-56{fill:url(#linear-gradient-57);}.cls-56,.cls-57,.cls-58,.cls-59,.cls-60,.cls-61,.cls-62{stroke-width:0px;}.cls-12{stroke:url(#linear-gradient-7);}.cls-13{stroke:url(#linear-gradient-34);}.cls-14{stroke:url(#linear-gradient-25);}.cls-15{stroke:url(#linear-gradient-43);}.cls-16{stroke:url(#linear-gradient-31);}.cls-17{stroke:url(#linear-gradient-41);}.cls-18{stroke:url(#linear-gradient-13);}.cls-19{stroke:url(#linear-gradient-55);}.cls-20{stroke:url(#linear-gradient-47);}.cls-21{stroke:url(#linear-gradient-32);}.cls-22{stroke:url(#linear-gradient-5);}.cls-23{stroke:url(#linear-gradient-37);}.cls-24{stroke:url(#linear-gradient-29);}.cls-25{stroke:url(#linear-gradient-38);}.cls-26{stroke:url(#linear-gradient-54);}.cls-27{stroke:url(#linear-gradient-46);}.cls-28{stroke:url(#linear-gradient-42);}.cls-58{fill:url(#linear-gradient-58);}.cls-29{stroke:url(#linear-gradient-45);}.cls-30{stroke:url(#linear-gradient-50);}.cls-31{stroke:url(#linear-gradient-52);}.cls-32{stroke:url(#linear-gradient-27);}.cls-33{stroke:url(#linear-gradient-12);}.cls-34{stroke:url(#linear-gradient-2);}.cls-35{stroke:url(#linear-gradient-17);}.cls-59{fill:url(#linear-gradient-60);}.cls-60{fill:url(#linear-gradient-59);}.cls-36{stroke:url(#linear-gradient-44);}.cls-37{stroke:url(#linear-gradient-51);}.cls-38{stroke:url(#linear-gradient-40);}.cls-39{stroke:url(#linear-gradient-14);}.cls-40{stroke:url(#linear-gradient-4);}.cls-41{stroke:url(#linear-gradient-19);}.cls-61{fill:url(#radial-gradient);}.cls-42{stroke:url(#linear-gradient-18);}.cls-43{stroke:url(#linear-gradient-39);}.cls-44{stroke:url(#linear-gradient-35);}.cls-45{stroke:url(#linear-gradient-53);}.cls-46{stroke:url(#linear-gradient-48);}.cls-47{stroke:url(#linear-gradient-20);}.cls-62{fill:url(#linear-gradient-56);}.cls-48{stroke:url(#linear-gradient-10);}.cls-49{stroke:url(#linear-gradient-16);}.cls-50{stroke:url(#linear-gradient-15);}.cls-51{stroke:url(#linear-gradient-36);}.cls-52{stroke:url(#linear-gradient-22);}.cls-53{stroke:url(#linear-gradient-11);}.cls-54{stroke:url(#linear-gradient-23);}.cls-55{stroke:url(#linear-gradient);}</style><linearGradient id="linear-gradient" x1="103.45" y1="101.93" x2="103.56" y2="112.68" gradientUnits="userSpaceOnUse"><stop offset="0" stop-color="#080085"/><stop offset=".32" stop-color="#070083"/><stop offset=".44" stop-color="#07007c"/><stop offset=".52" stop-color="#060070"/><stop offset=".59" stop-color="#05005f"/><stop offset=".64" stop-color="#040049"/><stop offset=".69" stop-color="#02002e"/><stop offset=".74" stop-color="#00000e"/><stop offset=".76" stop-color="#000"/></linearGradient><linearGradient id="linear-gradient-2" x1="31.23" y1="103.54" x2="31.32" y2="113.31" xlink:href="#linear-gradient"/><linearGradient id="linear-gradient-3" x1="118.41" y1="92.78" x2="118.51" y2="103.44" xlink:href="#linear-gradient"/><linearGradient id="linear-gradient-4" x1="36.03" y1="103.54" x2="36.12" y2="113.52" xlink:href="#linear-gradient"/><linearGradient id="linear-gradient-5" x1="40.83" y1="103.54" x2="40.92" y2="113.52" xlink:href="#linear-gradient"/><linearGradient id="linear-gradient-6" x1="45.56" y1="103.54" x2="45.66" y2="113.52" xlink:href="#linear-gradient"/><linearGradient id="linear-gradient-7" x1="21.56" y1="104.49" x2="21.64" y2="113.52" xlink:href="#linear-gradient"/><linearGradient id="linear-gradient-8" x1="19.4" y1="101.27" x2="19.46" y2="106.91" xlink:href="#linear-gradient"/><linearGradient id="linear-gradient-9" x1="50.29" y1="103.54" x2="50.39" y2="113.52" xlink:href="#linear-gradient"/><linearGradient id="linear-gradient-10" x1="87.24" y1="5.13" x2="87.26" y2="7.09" xlink:href="#linear-gradient"/><linearGradient id="linear-gradient-11" x1="69.47" y1="91.23" x2="69.57" y2="102.27" xlink:href="#linear-gradient"/><linearGradient id="linear-gradient-12" x1="17.11" y1="107.79" x2="17.16" y2="113.52" xlink:href="#linear-gradient"/><linearGradient id="linear-gradient-13" x1="98.68" y1="103.54" x2="98.77" y2="113.53" xlink:href="#linear-gradient"/><linearGradient id="linear-gradient-14" x1="102.2" y1="22.58" x2="102.24" y2="26.53" xlink:href="#linear-gradient"/><linearGradient id="linear-gradient-15" x1="114.86" y1="95" x2="114.96" y2="105.73" xlink:href="#linear-gradient"/><linearGradient id="linear-gradient-16" x1="107.43" y1="99.51" x2="107.53" y2="110.23" xlink:href="#linear-gradient"/><linearGradient id="linear-gradient-17" x1="93.36" y1="103.54" x2="93.45" y2="113.52" xlink:href="#linear-gradient"/><linearGradient id="linear-gradient-18" x1="4.62" y1="111.94" x2="4.64" y2="114.43" xlink:href="#linear-gradient"/><linearGradient id="linear-gradient-19" x1="83.77" y1="103.55" x2="83.86" y2="113.28" xlink:href="#linear-gradient"/><linearGradient id="linear-gradient-20" x1="55.09" y1="103.54" x2="55.19" y2="113.52" xlink:href="#linear-gradient"/><linearGradient id="linear-gradient-21" x1="64.69" y1="103.54" x2="64.79" y2="113.52" xlink:href="#linear-gradient"/><linearGradient id="linear-gradient-22" x1="88.56" y1="103.54" x2="88.65" y2="113.52" xlink:href="#linear-gradient"/><linearGradient id="linear-gradient-23" x1="69.49" y1="103.54" x2="69.59" y2="113.52" xlink:href="#linear-gradient"/><linearGradient id="linear-gradient-24" x1="59.89" y1="103.54" x2="59.99" y2="113.52" xlink:href="#linear-gradient"/><linearGradient id="linear-gradient-25" x1="74.23" y1="103.54" x2="74.32" y2="113.52" xlink:href="#linear-gradient"/><linearGradient id="linear-gradient-26" x1="79.03" y1="103.54" x2="79.12" y2="113.36" xlink:href="#linear-gradient"/><linearGradient id="linear-gradient-27" x1="8.52" y1="111.33" x2="8.55" y2="114.14" xlink:href="#linear-gradient"/><linearGradient id="linear-gradient-28" x1="92.11" y1="8.1" x2="92.14" y2="10.64" xlink:href="#linear-gradient"/><linearGradient id="linear-gradient-29" x1="63.96" y1="2.63" x2="64.86" y2="97.07" xlink:href="#linear-gradient"/><linearGradient id="linear-gradient-30" x1="102.96" y1="39.58" x2="103" y2="44.3" xlink:href="#linear-gradient"/><linearGradient id="linear-gradient-31" x1="96.55" y1="11.88" x2="96.61" y2="18.5" xlink:href="#linear-gradient"/><linearGradient id="linear-gradient-32" x1="80.77" y1="2.83" x2="80.79" y2="4.33" xlink:href="#linear-gradient"/><linearGradient id="linear-gradient-33" x1="96.67" y1="40.96" x2="96.73" y2="46.87" xlink:href="#linear-gradient"/><linearGradient id="linear-gradient-34" x1="102.92" y1="28.04" x2="102.96" y2="32.49" xlink:href="#linear-gradient"/><linearGradient id="linear-gradient-35" x1="26.43" y1="103.54" x2="26.52" y2="113.45" xlink:href="#linear-gradient"/><linearGradient id="linear-gradient-36" x1="111.13" y1="97.32" x2="111.23" y2="107.97" xlink:href="#linear-gradient"/><linearGradient id="linear-gradient-37" x1="100.14" y1="17.34" x2="100.17" y2="21.09" xlink:href="#linear-gradient"/><linearGradient id="linear-gradient-38" x1="103.08" y1="60.75" x2="103.15" y2="67.47" xlink:href="#linear-gradient"/><linearGradient id="linear-gradient-39" x1="102.85" y1="53.31" x2="102.91" y2="59.64" xlink:href="#linear-gradient"/><linearGradient id="linear-gradient-40" x1="102.96" y1="68.18" x2="103.03" y2="75" xlink:href="#linear-gradient"/><linearGradient id="linear-gradient-41" x1="102.89" y1="81.22" x2="102.97" y2="89.72" xlink:href="#linear-gradient"/><linearGradient id="linear-gradient-42" x1="102.89" y1="45.81" x2="102.95" y2="51.95" xlink:href="#linear-gradient"/><linearGradient id="linear-gradient-43" x1="102.89" y1="87.82" x2="102.97" y2="96.5" xlink:href="#linear-gradient"/><linearGradient id="linear-gradient-44" x1="103.1" y1="33.85" x2="103.14" y2="38.44" xlink:href="#linear-gradient"/><linearGradient id="linear-gradient-45" x1="102.89" y1="74.84" x2="102.96" y2="82.53" xlink:href="#linear-gradient"/><linearGradient id="linear-gradient-46" x1="97.21" y1="63.83" x2="97.3" y2="72.52" xlink:href="#linear-gradient"/><linearGradient id="linear-gradient-47" x1="66.47" y1="0" x2="67.58" y2="116.62" xlink:href="#linear-gradient"/><linearGradient id="linear-gradient-48" x1="40.85" y1="17.48" x2="40.9" y2="22.76" xlink:href="#linear-gradient"/><linearGradient id="linear-gradient-49" x1="90.65" y1="21.72" x2="90.71" y2="27.96" xlink:href="#linear-gradient"/><linearGradient id="linear-gradient-50" x1="91.28" y1="26.31" x2="91.32" y2="31.01" xlink:href="#linear-gradient"/><linearGradient id="linear-gradient-51" x1="92.56" y1="84.06" x2="92.6" y2="88.23" xlink:href="#linear-gradient"/><linearGradient id="linear-gradient-52" x1="89.47" y1="84.45" x2="89.52" y2="90.05" xlink:href="#linear-gradient"/><linearGradient id="linear-gradient-53" x1="41.82" y1="88.58" x2="41.86" y2="93.57" xlink:href="#linear-gradient"/><linearGradient id="linear-gradient-54" x1="44.37" y1="90.67" x2="44.41" y2="95.09" xlink:href="#linear-gradient"/><linearGradient id="linear-gradient-55" x1="6.2" y1="108.49" x2="6.29" y2="116.96" xlink:href="#linear-gradient"/><radialGradient id="radial-gradient" cx="63.4" cy="33.39" fx="63.4" fy="33.39" r="15.17" gradientTransform="translate(0 .63) scale(1 .97)" gradientUnits="userSpaceOnUse"><stop offset=".56" stop-color="#734949"/><stop offset="1" stop-color="#e86e49"/></radialGradient><linearGradient id="linear-gradient-56" x1="62.76" y1="25.79" x2="62.61" y2="44.37" xlink:href="#linear-gradient"/><linearGradient id="linear-gradient-57" x1="67.45" y1="21.65" x2="66.78" y2="37.04" xlink:href="#linear-gradient"/><linearGradient id="linear-gradient-58" x1="58.22" y1="19.19" x2="58.44" y2="35.24" xlink:href="#linear-gradient"/><linearGradient id="linear-gradient-59" x1="68.7" y1="23.42" x2="70.68" y2="23.42" xlink:href="#linear-gradient"/><linearGradient id="linear-gradient-60" x1="54.77" y1="23.42" x2="56.76" y2="23.42" xlink:href="#linear-gradient"/></defs><g id="Layer_1-2"><path class="cls-55" d="m104.08,102.75c-.13.08-.27.15-.4.21-.34.16-.63.3-.75.67-.39,1.15-.19,3.08,0,4.95.12,1.18.23,2.31.2,3.22.11-.06.22-.12.33-.18.32-.17.63-.33.78-.6-.06-1.08-.03-2.27,0-3.41.05-1.7.1-3.45-.16-4.85Z"/><path class="cls-34" d="m30.77,112.33c.53.16,1.04.3,1.61.39v-8.66h-2.2v8.1c.2.06.41.12.6.17Z"/><path class="cls-9" d="m118.11,94.11v8.4c.46-.31.61-1.04.68-1.61.12-1.03.05-2.39-.03-3.7-.07-1.26-.14-2.46-.05-3.43-.19.13-.39.24-.6.34Z"/><rect class="cls-40" x="34.97" y="104.05" width="2.2" height="8.95"/><rect class="cls-22" x="39.77" y="104.05" width="2.2" height="8.95"/><rect class="cls-6" x="44.57" y="104.05" width="2.07" height="8.95"/><path class="cls-12" d="m22.71,105.43c-.28.21-.59.36-.91.51-.56.26-1.05.49-1.24,1.05-.29.88-.16,1.93-.03,3.04.11.97.23,1.98.09,2.97h2.15c-.02-.98,0-2.02,0-3.01.02-1.54.04-3.13-.08-4.56Z"/><path class="cls-1" d="m21.45,103.01c-.59-.46-1.31-.79-2.02-1.08-.46,1.2-.98,2.39-1.58,3.61,1.2-.78,2.37-1.62,3.61-2.54Z"/><rect class="cls-7" x="49.24" y="104.05" width="2.2" height="8.95"/><path class="cls-48" d="m83.2,5.9c1.51.88,4.46.71,6.88.57.25-.01.49-.03.72-.04-1.95-.97-5.1-.93-7.6-.54Z"/><path class="cls-53" d="m102.49,100.72c2.48-1.64,5.09-3.21,7.61-4.73,2.4-1.45,4.88-2.94,7.25-4.49-1.49.02-2.94-.03-4.34-.07-.96-.03-1.95-.06-2.95-.07,0,.04,0,.08,0,.11,0,.03,0,.07-.01.1-.36,1.03-1.35,1.53-2.23,1.97-.17.08-.33.17-.49.25-.91.5-1.78.92-2.62,1.34-1.21.6-2.36,1.16-3.59,1.9-.25.15-.51.32-.79.5-.81.53-1.66,1.08-2.41,1.22-.49.09-.96.03-1.41-.04-.24-.04-.48-.07-.73-.08-1.54-.09-3.26-.05-5.08-.01-1.66.04-3.39.07-5.09.02-.34.18-.73.59-1.14,1.02-.44.46-.9.94-1.39,1.24-.61.37-1.18.38-1.69.03-.29-.19-.45-.43-.49-.72-.08-.57.38-1.12.71-1.53.01-.02.03-.03.04-.05-6.47-.06-13.13-.03-19.57,0-10.69.06-21.73.11-32.17-.26-.09,0-.18-.06-.22-.14-.22-.42-.19-1.03-.16-1.62.02-.4.04-.8-.02-1.1-1.48.84-3.06,1.59-4.59,2.33-1.27.61-2.57,1.23-3.81,1.9.55.23.98.59,1.38.92.44.37.87.72,1.39.84.07.02.13.03.18.05,2.14-.04,5.24-.06,9.23-.06h65.95c-.31-.62-.24-1.03-.11-1.28.18-.35.57-.56,1.08-.58.69-.03,1.67.31,2.27,1.1Z"/><path class="cls-33" d="m17.94,108.78c-.21.18-.45.34-.68.49-.38.24-.74.47-.96.83v2.91h1.67c-.02-.56,0-1.16.01-1.73.02-.86.04-1.74-.05-2.5Z"/><rect class="cls-18" x="97.1" y="104.06" width="3.24" height="8.95"/><path class="cls-39" d="m97.36,23.13c.05.44.21.98.37,1.54.13.43.26.89.35,1.31h8.93c-.21-.89-.5-1.79-.89-2.85h-8.75Z"/><path class="cls-50" d="m115.35,95.82c-.12.08-.24.15-.36.21-.3.17-.58.33-.76.57.18,1.32.15,2.86.12,4.35-.03,1.34-.06,2.72.07,3.92.12-.07.24-.14.36-.2.3-.16.57-.31.73-.55-.06-1.08-.03-2.26,0-3.4.05-1.72.1-3.49-.17-4.9Z"/><path class="cls-49" d="m106.82,109.49s.09-.04.14-.06c.44-.18.9-.37,1.05-.79.41-1.15.2-3.09,0-4.96-.12-1.2-.24-2.34-.2-3.24-.3.19-.6.36-.9.54-.07.04-.14.08-.2.12.17,1.67.14,3.56.11,5.39-.02,1-.03,2.02-.01,3.01Z"/><rect class="cls-35" x="92.3" y="104.06" width="2.2" height="8.95"/><path class="cls-42" d="m5.07,113.02c-.3.27-.58.53-.84.8.49-.05,1-.05,1.45-.05-.04-.12-.07-.25-.1-.37-.06-.24-.12-.47-.21-.66-.1.09-.2.18-.3.27Z"/><path class="cls-41" d="m84.11,112.08c.26.14.52.27.8.4v-8.42h-2.2v7.34c.5.2.96.44,1.41.67Z"/><rect class="cls-47" x="54.04" y="104.05" width="2.2" height="8.95"/><rect class="cls-11" x="63.64" y="104.05" width="2.2" height="8.95"/><rect class="cls-52" x="87.51" y="104.06" width="2.2" height="8.95"/><rect class="cls-54" x="68.44" y="104.05" width="2.2" height="8.95"/><rect class="cls-3" x="58.84" y="104.05" width="2.2" height="8.95"/><rect class="cls-14" x="73.24" y="104.05" width="2.07" height="8.95"/><path class="cls-10" d="m77.91,104.05v8.49c.18-.1.38-.19.57-.29.73-.35,1.42-.68,1.64-1.38,0,0,0-.01,0-.02.3-.97.17-2.19.03-3.48-.11-1.11-.23-2.25-.09-3.32h-2.15Z"/><path class="cls-32" d="m8.02,112.57c.1.34.19.67.36.87.2-.17.43-.32.71-.44-.35-.37-.81-.71-1.2-.84.05.13.08.27.12.41Z"/><path class="cls-8" d="m95.9,9.65c-.37-.38-.76-.78-1.32-.92,0,0-.01,0-.02,0-.99-.25-2.9-.1-4.58.02-.86.06-1.62.12-2.2.13.23.31.67.68,1.01.97.12.1.24.2.35.3,1.01-.13,2.31-.12,3.69-.11,1.16.01,2.36.02,3.42-.06-.11-.1-.23-.22-.34-.33Z"/><path class="cls-24" d="m78.08,6.09c-2.63-1.15-5.46-1.98-8.41-2.46-3.16-.51-6.49-.63-9.91-.35-6.02.49-11.54,3.49-13.63,4.76-.14.09-.29.17-.42.25-2.28,1.37-3.54,2.13-3.86,5.26-.03.3-.04.65-.04,1.01,0,.6-.02,1.22-.15,1.71-.17.64-.54.97-1.08,1.01-.62.04-.83-.27-1-.51-.12-.17-.21-.31-.45-.39-.54.14-1.2.13-1.84.12-.11,0-.23,0-.35,0-2.32,3.48-3.23,5.76-3.76,7.36-.99,2.99-1.38,6.17-1.2,9.72.2-.13.43-.3.67-.46.94-.68,2.11-1.52,3.09-1.21.43.14.78.48,1.04,1.02.64-.53,1.97-1.43,2.84-1.13.27.09.6.35.68,1.01.08.66-.88,1.61-1.72,2.23-.41.3-1.63,1.13-2.67,1.13-.22,0-.44-.04-.64-.13-.27-.12-.59-.39-.73-.96-.85.5-1.77,1.11-2.53,1.9v47.92c.37.07.7.19,1.02.3.25.08.48.17.73.23-.06-.72.28-1.17.59-1.42.56-.45,1.53-.67,2.73-.61,1.04.06,2.11.31,2.86.69.85.43,1.02.87,1.01,1.16-.01.41-.15.73-.41.93-.59.47-1.63.27-2.73.05-.47-.09-.95-.19-1.36-.21.08.85-.1,1.47-.53,1.83-.9.77-2.62.22-3.87-.17-.01,0-.03,0-.04-.01,0,1.34,0,2.79,0,4.2,0,1.55-.01,3.02,0,4.28,7.53.11,15.49.16,23.98.16s17.44-.06,27.08-.16c-.11-.15-.23-.3-.35-.44-.42-.5-.89-1.06-.62-1.85.15-.46.48-.74.98-.82.4-.06.88,0,1.38.06.46.06.93.12,1.39.09,0-.21-.02-.43-.03-.65-.06-1.06-.1-1.98.39-2.46.23-.22.55-.32.96-.29.31.03.58.16.78.41.71.84.53,2.85.4,4.31-.01.13-.02.25-.03.37,0,.04-.02.08-.04.11-.47.77-1.41.82-2.23.86-.09,0-.18,0-.27.02.15.4.51.42,1.2.41h.21c.07,0,.15,0,.23,0,2.66.08,6.08.04,8.42-.11v-21.08c-.71-1.07-1.27-2.38-1.7-3.99h0c-.34.32-.62.57-.63,1.06,0,.18.09.36.21.57.15.28.32.59.31.99-.04,1.05-.72,2.19-1.38,2.77-.39.34-.77.5-1.11.46-.64-.06-.9-.4-1.01-.66-.31-.77.29-1.9.72-2.47-.4-.68-.5-1.39-.32-2.15.17-.72.56-1.4.98-2.12.07-.12.14-.25.21-.37.18-.31.36-.63.55-.97,1.33-2.32,2.85-4.96,3.18-7.63.24-1.96.14-3.87.03-5.89-.1-1.84-.2-3.74-.04-5.78-.8-.84-1.2-2.04-1.6-3.2-.04-.1-.07-.21-.11-.31-.12.07-.26.17-.41.28-.51.38-1.2.89-2.18.8-.05,0-.1-.03-.14-.06-.45-.38-.66-.72-.66-1.07,0-.49.42-.82.86-1.16.19-.15.39-.31.55-.48.79-.81.81-1.2.58-2.63-.01-.08.01-.17.07-.22.98-1,2.26-1.69,3.5-2.36.25-.14.51-.27.76-.41-.88-1.9-.96-4.26-1.04-6.75-.04-1.06-.07-2.15-.17-3.24-.27-2.86-1.37-5.17-2.35-7.2-.14-.29-.27-.57-.4-.85-.48.03-.84-.06-1.18-.15-.15-.04-.3-.08-.46-.1-.55,1.02-1.14,1.11-1.44,1.07-.49-.06-.9-.52-1.04-1.16-.15-.68.01-1.68.93-2.3.13-.68.23-1.33.23-2.09-3.09-3.94-7.24-7.13-12.01-9.22Zm-37.66,16.14c-.07.02-.15.03-.23.03-.64,0-1.37-.62-1.85-1.29-.59-.83-.76-1.62-.43-2.11.31-.48,1-.62,2.04-.4.1.02.18.1.2.2.07.35.28.64.5.96.15.21.3.42.4.65-.22-.62-.28-1.32-.11-1.89.02-.06.06-.11.11-.15.6-.37,1.25-.36,1.81.04.78.55,1.28,1.76,1.09,2.63-.11.5-.43.82-.9.92h0c-.08.02-.17.02-.25.02-.42,0-.83-.2-1.17-.58-.2-.22-.37-.5-.5-.8.06.19.09.39.06.61-.11.81-.48,1.08-.78,1.15Zm.52,70.84c-.06,0-.11,0-.17-.01-.31-.05-.7-.27-.87-1.01-.14-.64.4-1.39.74-1.78.5-.58,1.1-1.03,1.53-1.13.73-.17,1.23-.07,1.48.27.17.23.34.78-.32,1.84-.58.92-1.58,1.82-2.39,1.82Zm4.81.18c-.3.62-.92,1.34-1.7,1.34h0c-.38,0-.68-.08-.89-.24-.21-.16-.34-.39-.37-.66-.1-.89.85-2.25,1.73-2.46.73-.17,1.1.06,1.28.29.31.38.3,1.05-.04,1.74Zm46.47-8.64c.45-.13.88,0,1.2.33.45.47.64,1.31.43,1.96-.14.44-.45.73-.86.81-.06,0-.12.02-.18.02-.31,0-.63-.15-.92-.42-.3-.29-.53-.68-.62-1.08-.18-.79.18-1.41.94-1.62Zm.37-55.22c-.57.69-1.47,1.13-2.32,1.13h-.06c-.06,0-.12-.02-.16-.06-.55-.46-.69-1.13-.39-1.85.42-1.02,1.59-1.88,2.45-1.81.29.03.79.18.96.94.12.55-.05,1.13-.48,1.65Zm-1.56-6.93l.04-.04c.14-.14.39-.28.79-.17.54.14,1.14.71,1.2.93.07.23,0,.56-.2.99-.17.36-.43.78-.75,1.19-.72.95-1.55,1.68-2.23,1.97-.23.09-.44.14-.63.14-.4,0-.73-.2-.94-.59-.02-.04-.03-.09-.03-.13.05-1.66,1.81-3.37,2.76-4.29Zm-2.91,62.98c.41-.53,1.11-.54,1.62-.45.08.01.15.06.18.13.02.04.05.08.07.13.79,1.44,1.53,3.02,1.01,3.84-.19.3-.53.45-.99.45-.06,0-.13,0-.2,0h0c-.31-.03-.64-.22-.95-.56-.27-.29-.52-.68-.7-1.1-.43-.99-.44-1.9-.03-2.43Z"/><path class="cls-2" d="m103.95,40.12c-1.88-.03-3.83-.05-5.55.11.07.85.39,1.46.73,2.09.23.44.47.89.63,1.43h7.84c0-1.42-.07-2.62-.22-3.62-1.12.02-2.29,0-3.42,0Z"/><path class="cls-16" d="m99.23,12.61c-1.59-.44-3.67-.18-5.49.05-.78.1-1.53.19-2.18.22.17.22.33.42.58.51,1.06-.57,1.69-.17,1.91.04.43.4.55,1.08.28,1.63-.27.57-.87.87-1.64.84-.01.19-.05.39-.1.59.4-.5,1.04-.85,1.96-1.05,1.21-.27,2.75-.25,4.25-.24.97,0,1.9.02,2.73-.05-.23-.26-.43-.58-.63-.91-.43-.69-.87-1.41-1.68-1.63Z"/><path class="cls-21" d="m78.48,3.37c1.31.46,2.79.52,4.64.39-1.33-.43-3.27-.44-4.64-.39Z"/><path class="cls-4" d="m95.88,41.67c-.06.04-.11.07-.16.1-.02,0-.04.02-.06.03.08,1.14.46,1.97.86,2.85.2.43.4.88.56,1.37.34-.28.61-.51.64-1-.51-.54-.83-1.26-1.14-1.95-.22-.51-.43-.99-.71-1.4Z"/><path class="cls-13" d="m104.03,28.58c-1.9-.03-3.86-.05-5.6.1.11.73.1,1.56.09,2.38,0,.3,0,.6,0,.89h8.87c.11-.62.08-1.28.05-1.92-.02-.5-.04-.98,0-1.44-1.11.02-2.27,0-3.4,0Z"/><path class="cls-44" d="m26.3,112.46c.4-.16.81-.32,1.27-.43v-7.97h-2.2v8.74c.32-.1.62-.21.93-.34Z"/><path class="cls-51" d="m111.02,106.98c.34-.16.63-.3.75-.67h0c.39-1.15.19-3.08,0-4.95-.12-1.18-.23-2.3-.2-3.22-.08.04-.16.08-.24.12-.34.16-.63.3-.76.69-.38,1.15-.19,3.09,0,4.96.12,1.17.23,2.29.2,3.19.08-.05.17-.09.25-.13Z"/><path class="cls-23" d="m103.36,17.82c-1.64.17-3.49.14-5.28.12-.97-.01-1.96-.03-2.91,0,.08.42.33.88.6,1.35.22.4.45.81.6,1.25h8.62c-.03-.06-.06-.12-.08-.18-.43-.98-.85-1.9-1.55-2.53Z"/><path class="cls-25" d="m107.5,61.35c-1.56-.27-3.31-.07-5.16.14-1.2.14-2.43.28-3.63.29.3,1.19.74,2.26,1.18,3.3.25.6.51,1.22.74,1.86,1.7-.29,3.49-.52,5.22-.74.57-.07,1.16-.15,1.74-.23-.02-.56,0-1.16,0-1.74.03-1.01.05-2.04-.09-2.88Z"/><path class="cls-43" d="m107.51,53.89c-3.03.24-6.66.11-9.21,0-.26.7-.18,1.67-.08,2.69.07.81.16,1.71.07,2.61,1.6-.05,3.14-.18,4.63-.31,1.5-.13,3.05-.27,4.66-.32-.02-.57,0-1.17,0-1.76.02-1.01.05-2.05-.08-2.9Z"/><path class="cls-38" d="m107.6,72.71v-4.05c-1.34.09-2.61.29-3.84.47-.96.15-1.96.3-2.99.4-.34.78-.76,1.72-1.24,2.72-.09.19-.19.39-.3.6-.27.53-.58,1.15-.68,1.58,1.8-.28,3.55-.64,5.24-.98,1.24-.25,2.51-.52,3.81-.75Z"/><path class="cls-17" d="m107.53,81.83c-1.58.53-3.21,1.04-4.79,1.53-1.47.46-3,.93-4.47,1.42.02.55,0,1.13,0,1.69-.02.88-.05,1.78.06,2.53,1.9-.95,4.1-1.64,6.22-2.3,1.01-.31,2.05-.64,3.04-.99-.02-.5,0-1.04,0-1.56.02-.81.05-1.65-.07-2.33Z"/><path class="cls-28" d="m107.51,46.34h-7.54c-.15.26-.3.51-.45.75-.72,1.17-1.4,2.27-1.28,4.2,1.88.15,3.97.13,5.99.11,1.11,0,2.25-.02,3.36,0-.02-.61,0-1.24,0-1.86.02-1.1.05-2.24-.09-3.19Z"/><path class="cls-15" d="m107.56,88.45c-1.27.48-2.6.93-3.88,1.36-1.81.61-3.68,1.24-5.41,1.97.02.52,0,1.07,0,1.61-.02.81-.05,1.65.06,2.34,2.74-1.69,5.7-3.15,9.27-4.8-.02-.33,0-.68.01-1.03.02-.52.04-1.06-.04-1.45Z"/><path class="cls-36" d="m98.81,34.44c.06.43.19.84.32,1.24.21.67.43,1.36.36,2.12,1.38-.39,3.18-.33,4.94-.27,1,.03,2.03.06,2.96.02.12-.57.1-1.31.08-2.03,0-.36-.02-.72,0-1.07-2.53.18-5.78.18-8.65,0Z"/><path class="cls-29" d="m107.6,75.4c-.9.18-1.81.36-2.68.54-2.14.44-4.36.89-6.65,1.24v4.77c1.43-.35,2.79-.8,4.1-1.24,1.65-.55,3.35-1.13,5.24-1.5v-3.81Z"/><path class="cls-27" d="m96.13,68.14c-.01,1.12.24,2.27.72,3.34.12-.19.26-.39.4-.59.55-.8,1.12-1.62,1.14-2.5.01-.78-.45-1.56-.89-2.32-.21-.35-.42-.72-.59-1.08-.5.97-.76,2.04-.78,3.15Z"/><path class="cls-20" d="m121.43,98.06c-.04-.73-.08-1.41-.08-2.05,0-.5,0-1.01.02-1.5.04-1.86.08-3.61-.43-5.07-.03-.08-.09-.15-.18-.17-1.65-.43-3.77-.42-5.82-.4-1.69.01-3.43.03-4.88-.21v-45.83c0-1.74.06-3.52.12-5.24.11-3.4.23-6.92-.12-10.22-.45-4.27-2.34-8.56-5.76-13.1-1.38-1.84-2.93-3.52-4.59-5-1.63-1.46-3.43-2.76-5.34-3.89-2.16-1.27-4.37-2.28-6.59-3.01-2.62-.87-5.24-1.35-7.8-1.43-1.4-.05-2.85-.11-4.39-.18-6.83-.3-14.57-.64-20.45.7-1.83.42-3.61,1-5.62,1.83-3.94,1.63-7.77,3.49-9.08,6.09-.16.31-.31.92-.49,1.63-.25.97-.62,2.43-.99,2.69-.43.31-1.24.26-2.03.22-.45-.02-.92-.05-1.34,0-.08,0-.15.05-.19.11-1.34,1.96-2.63,3.9-3.69,6.06-1.23,2.52-1.95,4.94-2.19,7.42-.33,3.42-.22,7.14-.11,10.74.06,1.81.11,3.68.11,5.49v48.86c-1.41.69-2.82,1.4-4.19,2.1-2.53,1.29-5.15,2.62-7.85,3.79-.11.05-.17.16-.15.27.18,1.44-.45,2.71-1.12,4.06-.14.28-.28.57-.42.86-.17.37-.45.88-.75,1.42-.7,1.29-1.5,2.75-1.61,3.59-.06.49.02,1.08.11,1.7.07.52.15,1.05.15,1.57,0,.23-.01.47-.03.73-.06.96-.12,2.04.66,2.6.04.03.1.05.15.05,1.2,0,2.51.12,3.9.25,1.48.13,2.99.27,4.45.27.75,0,1.49-.04,2.19-.13.67-.09,1.29-.4,1.89-.69.6-.3,1.17-.59,1.72-.6.73-.02,1.49.27,2.3.57.67.25,1.37.51,2.07.6,2.14.26,4.59.18,7.18.09,1.31-.04,2.66-.09,4-.09h27.88c.62,0,1.27.03,1.9.06,1.28.06,2.6.13,3.72-.07.88-.16,1.57-.67,2.23-1.16.43-.32.88-.65,1.39-.9.49.12,1.05.5,1.64.9.74.5,1.5,1.02,2.3,1.16,1.53.27,3.43.19,5.45.1,1-.05,2.04-.09,3.03-.09s2.05.06,3.07.11c1.99.11,3.86.21,5.17-.12.45-.11,1.16-.57,1.9-1.05.21-.14.43-.28.63-.41,3.15-1.96,5.81-3.63,8.62-5.4,1.14-.72,2.32-1.46,3.57-2.25.26-.16.55-.33.85-.52,1.45-.86,3.26-1.93,3.67-3.12.44-1.28.33-3.06.23-4.77Zm-5.92,6.07c-.16.24-.44.39-.73.55-.12.06-.24.13-.36.2-.13-1.2-.1-2.58-.07-3.92.03-1.49.06-3.03-.12-4.35.18-.23.46-.4.76-.57.12-.07.24-.14.36-.21.27,1.41.22,3.18.17,4.9-.03,1.14-.06,2.32,0,3.4Zm-8.8-3.04c.07-.04.14-.08.2-.12.3-.17.6-.34.9-.54-.04.91.08,2.05.2,3.24.19,1.87.4,3.81,0,4.96-.15.42-.61.61-1.05.79-.05.02-.09.04-.14.06-.02-.98,0-2.01,0-3.01.03-1.82.06-3.71-.11-5.39Zm-12.21,2.97v8.95h-2.2v-8.95h2.2Zm-9.6,0v8.42c-.27-.13-.54-.27-.8-.4-.45-.23-.91-.47-1.41-.67v-7.34h2.2Zm4.8,0v8.95h-2.2v-8.95h2.2Zm-9.56,3.31c.13,1.29.26,2.51-.03,3.48,0,0,0,.01,0,.02-.22.7-.91,1.03-1.64,1.38-.19.09-.38.18-.57.29v-8.49h2.16c-.15,1.07-.03,2.21.09,3.32Zm-4.84-3.32v8.95h-2.07v-8.95h2.07Zm-4.67,0v8.95h-2.2v-8.95h2.2Zm-4.8,0v8.95h-2.2v-8.95h2.2Zm-4.8,0v8.95h-2.2v-8.95h2.2Zm-4.8,0v8.95h-2.2v-8.95h2.2Zm-4.8,0v8.95h-2.2v-8.95h2.2Zm-9.47,0v8.95h-2.2v-8.95h2.2Zm4.67,0v8.95h-2.07v-8.95h2.07Zm-9.47,0v8.95h-2.2v-8.95h2.2Zm-4.8,0v8.66c-.57-.08-1.08-.23-1.61-.39-.19-.06-.39-.11-.6-.17v-8.1h2.2Zm86.39-6.85c.07,1.31.15,2.67.03,3.7-.07.57-.21,1.3-.68,1.61v-8.4c.21-.1.42-.22.61-.34-.09.97-.03,2.17.05,3.43Zm-14.53,13.8c-.16.27-.46.43-.78.6-.11.06-.22.12-.33.18.04-.91-.08-2.04-.2-3.22-.19-1.87-.38-3.79,0-4.95.13-.37.42-.51.75-.67.14-.06.27-.13.4-.21.26,1.41.21,3.15.16,4.85-.03,1.15-.07,2.33,0,3.41Zm-3.89-6.95v8.95h-3.24v-8.95h3.24Zm-82.38,8.95h-1.67v-2.91c.21-.35.58-.58.96-.83.23-.15.47-.3.68-.49.09.76.06,1.64.04,2.49,0,.58-.03,1.18,0,1.74Zm81.16-12.81c-.13.25-.19.66.11,1.28H33.29c-3.99,0-7.1.02-9.23.06-.05-.02-.11-.03-.18-.05-.53-.12-.95-.47-1.39-.84-.39-.32-.82-.68-1.38-.92,1.24-.67,2.54-1.29,3.81-1.9,1.53-.73,3.12-1.49,4.59-2.33.06.3.04.7.02,1.1-.03.59-.06,1.21.16,1.62.04.08.13.14.22.14,10.43.37,21.48.32,32.17.26,6.44-.03,13.1-.07,19.57,0-.01.02-.03.03-.04.05-.33.4-.79.95-.71,1.53.04.28.2.52.49.72.51.35,1.08.34,1.69-.03.49-.3.95-.78,1.39-1.24.41-.43.8-.84,1.14-1.02,1.71.06,3.43.02,5.09-.02,1.82-.04,3.54-.07,5.08.01.25.01.5.05.73.08.45.06.92.13,1.41.04.75-.14,1.59-.69,2.41-1.22.28-.18.53-.35.79-.5,1.23-.74,2.38-1.3,3.59-1.9.84-.42,1.71-.84,2.62-1.34.15-.08.31-.17.49-.25.88-.44,1.87-.94,2.23-1.97,0-.03.02-.06.01-.1,0-.03,0-.07,0-.11,1,0,1.99.04,2.95.07,1.4.05,2.84.09,4.34.07-2.38,1.55-4.85,3.04-7.25,4.49-2.52,1.52-5.12,3.09-7.61,4.73-.61-.8-1.58-1.13-2.28-1.11-.51.02-.9.23-1.08.58Zm-76.36,12.81h-2.15c.14-1,.02-2-.09-2.97-.13-1.11-.25-2.16.03-3.04.18-.56.67-.79,1.24-1.05.31-.15.64-.3.91-.51.12,1.42.1,3.01.07,4.56-.01,1-.03,2.03,0,3.01Zm-1.32-10c-1.24.92-2.4,1.76-3.61,2.54.6-1.23,1.12-2.42,1.58-3.61.72.29,1.43.62,2.02,1.08ZM90.07,6.48c-2.42.14-5.37.31-6.88-.57,2.5-.4,5.65-.43,7.6.53-.24.01-.48.03-.72.04Zm8.01,19.51c-.09-.43-.22-.88-.35-1.31-.17-.56-.32-1.1-.37-1.54h8.75c.4,1.06.68,1.96.89,2.85h-8.93Zm9.35,4.05c.03.64.06,1.3-.05,1.92h-8.87c0-.3,0-.6,0-.89,0-.81.02-1.65-.09-2.38,1.75-.16,3.71-.13,5.6-.1,1.13.02,2.28.03,3.4,0-.04.45-.02.93,0,1.44Zm.04,5.48c.02.72.04,1.45-.08,2.03-.93.05-1.96.02-2.96-.02-1.75-.06-3.56-.11-4.94.27.07-.76-.15-1.45-.36-2.12-.13-.4-.26-.82-.32-1.24,2.87.18,6.12.18,8.65,0,0,.35,0,.72.01,1.08Zm.12,55.41c-3.57,1.65-6.53,3.11-9.27,4.8-.1-.69-.08-1.53-.06-2.34.02-.54.03-1.09,0-1.61,1.73-.73,3.6-1.36,5.41-1.97,1.28-.43,2.61-.88,3.88-1.36.08.4.06.93.04,1.45,0,.35-.02.7,0,1.03Zm0-39.53c-1.1-.02-2.25,0-3.36,0-2.02.02-4.11.04-5.99-.11-.12-1.93.56-3.03,1.28-4.2.15-.24.3-.49.45-.75h7.54c.14.95.12,2.09.09,3.19-.01.62-.03,1.25,0,1.86Zm0,7.15c-1.61.05-3.16.18-4.66.32-1.49.13-3.03.27-4.63.31.08-.89,0-1.8-.07-2.61-.09-1.02-.18-2,.08-2.69,2.55.12,6.18.25,9.21,0,.13.85.11,1.89.08,2.9-.01.59-.03,1.19,0,1.76Zm0,7.42c-.58.08-1.16.15-1.74.23-1.73.22-3.51.45-5.22.74-.23-.64-.49-1.26-.74-1.86-.43-1.04-.88-2.1-1.18-3.3,1.2,0,2.43-.15,3.63-.29,1.85-.21,3.6-.41,5.16-.14.14.84.12,1.87.09,2.87-.02.58-.03,1.18-.01,1.74Zm-8.36,6.91c.11-.21.21-.41.3-.6.48-1,.91-1.94,1.24-2.72,1.03-.1,2.03-.26,2.99-.4,1.23-.19,2.49-.38,3.84-.47v4.05c-1.29.23-2.57.49-3.81.75-1.69.35-3.44.71-5.24.98.1-.43.42-1.06.68-1.58Zm-.85-4.48c-.02.88-.58,1.71-1.14,2.5-.14.2-.27.4-.4.59-.49-1.07-.73-2.22-.72-3.34.01-1.11.28-2.18.78-3.15.17.37.38.73.59,1.08.44.76.9,1.54.89,2.32Zm-.13,13.56v-4.77c2.29-.34,4.51-.8,6.65-1.24.88-.18,1.78-.36,2.68-.54v3.8c-1.89.37-3.59.94-5.24,1.5-1.31.44-2.66.9-4.1,1.25Zm9.33,3.78c-1,.35-2.03.67-3.04.99-2.12.67-4.32,1.35-6.22,2.3-.11-.75-.09-1.65-.06-2.53.02-.56.03-1.15,0-1.69,1.48-.49,3-.97,4.47-1.42,1.58-.49,3.21-1,4.79-1.53.11.67.09,1.51.06,2.33-.01.52-.03,1.06,0,1.56Zm-10.49-39.7c-.17-.49-.37-.93-.56-1.37-.4-.88-.77-1.71-.86-2.85.02,0,.04-.02.06-.03.05-.03.11-.06.16-.1.28.41.49.89.71,1.4.31.69.62,1.41,1.14,1.95-.04.49-.31.73-.65,1Zm2.66-2.27c-.16-.54-.4-.99-.63-1.43-.34-.64-.66-1.24-.73-2.09,1.72-.16,3.67-.13,5.55-.11,1.13.02,2.3.03,3.42,0,.15,1.01.23,2.2.22,3.62h-7.84Zm-3.38-23.21c-.15-.43-.38-.84-.6-1.25-.27-.48-.52-.93-.6-1.35.95-.02,1.95,0,2.91,0,1.79.02,3.64.05,5.28-.12.7.63,1.11,1.55,1.55,2.53.03.06.05.12.08.18h-8.62Zm2.44-5.34c-1.49-.01-3.04-.03-4.25.24-.92.2-1.57.55-1.96,1.05.04-.2.08-.4.1-.59.76.03,1.36-.27,1.64-.84.26-.55.14-1.24-.28-1.63-.22-.21-.85-.61-1.91-.04-.25-.09-.4-.28-.58-.51.65-.03,1.4-.12,2.18-.22,1.83-.23,3.9-.48,5.49-.05.81.22,1.25.94,1.68,1.63.2.33.4.65.63.91-.83.06-1.76.06-2.73.05Zm-5.99-5.15c-1.38-.01-2.69-.03-3.69.11-.11-.09-.22-.19-.35-.3-.34-.29-.77-.66-1.01-.97.58,0,1.34-.06,2.2-.13,1.68-.13,3.59-.27,4.58-.02,0,0,.01,0,.02,0,.56.15.95.54,1.32.92.11.12.23.23.34.34-1.06.07-2.26.06-3.42.05Zm-2.97,7.35c-.92.62-1.08,1.62-.93,2.3.14.65.55,1.1,1.04,1.16.31.04.89-.06,1.44-1.07.16.03.31.06.46.1.35.09.7.18,1.18.15.13.28.26.55.4.85.98,2.04,2.08,4.35,2.35,7.2.1,1.08.14,2.18.17,3.24.08,2.49.16,4.85,1.04,6.75-.25.14-.51.28-.76.41-1.24.67-2.52,1.37-3.5,2.36-.06.06-.08.14-.07.22.23,1.43.21,1.82-.58,2.63-.17.17-.36.33-.55.48-.44.35-.86.68-.86,1.16,0,.35.2.69.66,1.07.04.03.09.06.14.06.99.09,1.68-.42,2.18-.8.15-.11.29-.21.41-.28.04.1.07.21.11.31.4,1.16.8,2.36,1.6,3.2-.16,2.04-.06,3.94.04,5.78.11,2.02.21,3.93-.03,5.89-.33,2.67-1.84,5.31-3.18,7.63-.19.33-.37.65-.55.97-.07.13-.14.25-.21.37-.42.72-.8,1.41-.98,2.12-.18.76-.08,1.47.32,2.15-.43.57-1.03,1.7-.72,2.47.11.27.37.6,1.01.66.34.03.72-.13,1.11-.46.66-.57,1.34-1.71,1.38-2.77.01-.4-.16-.71-.31-.99-.12-.21-.22-.39-.21-.57.02-.49.29-.74.63-1.06h0c.43,1.61.99,2.91,1.7,3.98v21.08c-2.34.15-5.76.2-8.42.11-.08,0-.15,0-.23,0h-.21c-.69,0-1.05,0-1.2-.41.09,0,.18,0,.27-.02.82-.05,1.76-.09,2.23-.86.02-.04.03-.07.04-.11,0-.12.02-.24.03-.37.13-1.46.31-3.46-.4-4.31-.2-.24-.47-.38-.78-.41-.41-.03-.73.06-.96.29-.5.48-.45,1.4-.39,2.46,0,.21.02.43.03.65-.45.03-.92-.03-1.39-.09-.5-.06-.98-.12-1.38-.06-.5.08-.83.36-.98.82-.26.79.21,1.35.62,1.85.12.15.24.29.35.44-9.63.11-18.62.16-27.08.16s-16.44-.06-23.98-.16c-.01-1.26,0-2.73,0-4.28,0-1.41.01-2.85,0-4.2.01,0,.03,0,.04.01,1.26.4,2.98.94,3.87.17.43-.37.6-.98.53-1.83.41.03.89.12,1.36.21,1.1.22,2.14.42,2.73-.05.26-.21.4-.52.41-.93,0-.3-.16-.74-1.01-1.16-.75-.38-1.82-.63-2.86-.69-1.19-.06-2.16.15-2.73.61-.32.26-.65.7-.59,1.42-.25-.06-.49-.15-.73-.23-.32-.11-.65-.23-1.02-.3v-47.91c.76-.79,1.68-1.39,2.53-1.9.14.58.46.84.73.96.2.09.42.13.64.13,1.04,0,2.27-.83,2.67-1.13.84-.62,1.8-1.57,1.72-2.23-.08-.67-.42-.92-.68-1.01-.87-.31-2.2.6-2.84,1.13-.26-.54-.6-.89-1.04-1.02-.99-.31-2.15.54-3.09,1.21-.24.17-.47.34-.67.46-.18-3.55.21-6.73,1.2-9.72.53-1.6,1.44-3.89,3.76-7.36.12,0,.23,0,.35,0,.64,0,1.3.01,1.84-.12.23.08.33.22.45.39.17.25.38.55,1,.51.55-.04.91-.38,1.08-1.01.14-.5.14-1.12.15-1.71,0-.36,0-.71.04-1.01.33-3.13,1.58-3.89,3.86-5.26.14-.08.28-.17.42-.25,2.09-1.27,7.61-4.27,13.63-4.76,3.42-.28,6.75-.16,9.91.35,2.95.48,5.78,1.3,8.41,2.46,4.77,2.09,8.92,5.28,12.01,9.21,0,.76-.1,1.4-.23,2.09Zm-11.38-14.03c1.37-.05,3.31-.03,4.64.39-1.85.13-3.33.07-4.64-.39ZM27.58,104.05v7.97c-.46.12-.87.28-1.27.43-.31.12-.61.24-.93.34v-8.74h2.2Zm82.99-.14c-.18-1.87-.38-3.8,0-4.96.13-.39.42-.53.76-.69.08-.04.16-.07.24-.12-.03.91.08,2.04.2,3.22.19,1.87.38,3.79,0,4.95h0c-.13.37-.42.51-.75.67-.08.04-.17.08-.25.12.03-.9-.08-2.02-.19-3.19Z"/><path class="cls-46" d="m41.13,20.48c.13.3.3.57.5.8.34.38.75.58,1.17.58.08,0,.17,0,.25-.02h0c.47-.09.79-.42.9-.92.19-.88-.31-2.09-1.09-2.63-.57-.4-1.21-.41-1.81-.04-.06.03-.09.09-.11.15-.17.57-.11,1.27.11,1.89-.11-.23-.26-.44-.4-.65-.22-.31-.43-.61-.5-.96-.02-.1-.1-.18-.2-.2-1.04-.21-1.73-.08-2.04.4-.32.49-.16,1.28.43,2.11.48.67,1.21,1.29,1.85,1.29.08,0,.15,0,.23-.03.3-.07.67-.33.77-1.15.03-.22,0-.42-.06-.61Z"/><path class="cls-5" d="m89.24,27.48c.19,0,.41-.05.63-.14.67-.28,1.51-1.02,2.23-1.97.32-.42.58-.83.75-1.19.21-.43.27-.76.2-.99-.07-.22-.67-.79-1.2-.93-.39-.1-.64.04-.79.17l-.04.04c-.95.92-2.71,2.63-2.76,4.29,0,.05,0,.09.03.13.21.39.54.59.94.59Z"/><path class="cls-30" d="m92.1,26.81c-.86-.07-2.02.79-2.45,1.81-.3.72-.15,1.39.39,1.85.05.04.1.06.16.06h.06c.85,0,1.76-.44,2.32-1.13.43-.52.59-1.11.47-1.65-.17-.76-.67-.92-.96-.94Z"/><path class="cls-37" d="m91.89,87.31c.29.27.61.42.92.42.06,0,.12,0,.18-.02.42-.07.72-.36.86-.81.21-.65.03-1.49-.43-1.96-.32-.34-.75-.45-1.2-.33-.77.21-1.13.83-.95,1.62.1.4.32.79.62,1.08Z"/><path class="cls-31" d="m88.85,88.97c.31.34.64.53.95.56h0c.07,0,.14,0,.2,0,.46,0,.8-.15.99-.45.53-.81-.21-2.39-1.01-3.84-.03-.05-.05-.09-.07-.13-.04-.07-.11-.12-.18-.13-.52-.08-1.21-.07-1.62.45-.41.53-.4,1.44.03,2.43.18.42.43.81.7,1.1Z"/><path class="cls-45" d="m43.65,89.42c-.25-.35-.75-.44-1.48-.27-.43.1-1.03.54-1.53,1.13-.34.39-.88,1.14-.74,1.78.17.74.56.96.87,1.01.06,0,.11.01.17.01.8,0,1.8-.9,2.38-1.82.67-1.06.49-1.61.33-1.84Z"/><path class="cls-26" d="m44.51,91.23c-.88.21-1.83,1.56-1.73,2.46.03.28.16.51.37.66.22.16.52.24.89.24h0c.78,0,1.41-.72,1.7-1.34.33-.69.35-1.36.04-1.75-.18-.22-.55-.45-1.28-.28Z"/><path class="cls-19" d="m6.92,109s-.06-.02-.09-.02h0s-.08,0-.12.03c-1.88.77-3.56,1.96-5,3.56-.48.53-1.27,1.57-1.2,2.6.03.45.22.84.58,1.15.04.04.1.06.16.06,1.12.06,2.21.11,3.26.11.96,0,1.88-.04,2.74-.15,2.01-.26,3.5-.91,4.57-1.97.04-.04.06-.09.07-.14.07-.43.08-.72.08-1.04,0-.26,0-.54.05-.93,0-.07-.02-.15-.07-.2-1.38-1.5-3.02-2.49-5.02-3.05Zm-1.24,4.78c-.45,0-.96,0-1.45.05.26-.28.55-.54.84-.8.1-.09.2-.18.3-.27.09.18.15.42.21.66.03.12.06.25.1.37Zm3.42-.78c-.29.11-.52.28-.71.44-.18-.21-.27-.53-.36-.87-.04-.14-.08-.28-.12-.41.39.14.85.47,1.2.84Z"/><g id="ad"><path class="cls-61" d="m52.16,32.95c0,1.2.93,2.18,2.08,2.18.07,0,.14,0,.21,0v2.88c0,1.36.64,2.64,1.71,3.41l2.95,2.14c1.07.77,2.31,1.18,3.61,1.18s2.54-.41,3.61-1.18l2.95-2.14c1.07-.77,1.71-2.05,1.71-3.41v-2.88c.07,0,.14,0,.21,0,1.15,0,2.08-.98,2.08-2.18,0-.58-.22-1.13-.61-1.54l-.24-.25.1-.32c.5-1.56.75-3.19.75-4.83,0-6.09-4.74-11.05-10.57-11.05s-10.57,4.96-10.57,11.05c0,1.65.25,3.27.75,4.83l.1.32-.24.25c-.39.41-.61.96-.61,1.54h0Z"/><path class="cls-62" d="m52.16,32.9c0,1.2.93,2.18,2.08,2.18.07,0,.14,0,.21,0v2.88c0,1.36.64,2.64,1.71,3.41l2.95,2.14c1.07.77,2.31,1.18,3.61,1.18s2.54-.41,3.61-1.18l2.95-2.14c1.07-.77,1.71-2.05,1.71-3.41v-2.88c.07,0,.14,0,.21,0,1.15,0,2.08-.98,2.08-2.18,0-.58-.22-1.13-.61-1.54l-.24-.25.1-.32c.5-1.56.75-3.19.75-4.83,0-6.09-4.74-11.05-10.57-11.05s-10.57,4.96-10.57,11.05c0,1.65.25,3.27.75,4.83l.1.32-.24.25c-.39.41-.61.96-.61,1.54h0Zm17.92,5.06c0,1.05-.49,2.03-1.31,2.62l-2.95,2.14c-.91.66-1.98,1.01-3.09,1.01s-2.18-.35-3.09-1.01l-2.95-2.14c-.82-.6-1.31-1.58-1.31-2.62v-2.74c.54.14,1.06.37,1.53.7l.25.18c.64.45,1.09,1.16,1.21,1.96.11.72.55,1.29,1.14,1.59v1.19h.92v-.96h.92v.96h.92v-.96h.92v.96h.92v-.96h.92v.96h.92v-1.19c.59-.3,1.02-.88,1.14-1.59.13-.8.57-1.51,1.21-1.96l.25-.18c.47-.33.99-.56,1.53-.7v2.74Zm-16.1-6.88l-.19-.6c-.47-1.46-.7-2.99-.7-4.53,0-5.56,4.33-10.09,9.65-10.09s9.65,4.53,9.65,10.09c0,1.54-.24,3.07-.7,4.53l-.19.6c-.06.17-.01.36.11.49l.44.46c.22.23.34.54.34.86,0,.67-.52,1.22-1.16,1.22-1.13,0-2.23.35-3.17,1l-.25.18c-.85.6-1.44,1.54-1.61,2.6-.03.21-.12.39-.23.55v-.49h-.92v.96h-.92v-.96h-.92v.96h-.92v-.96h-.92v.96h-.92v-.96h-.92v.49c-.12-.16-.2-.34-.23-.55-.17-1.06-.76-2.01-1.61-2.6l-.25-.18c-.94-.66-2.04-1-3.17-1-.64,0-1.16-.55-1.16-1.22,0-.33.12-.63.34-.86l.44-.46c.12-.13.17-.32.11-.49Z"/><path class="cls-56" d="m65.43,32.3c.59.25,1.2.37,1.83.37h.86c1.33,0,2.41-1.13,2.41-2.53,0-.95-.25-1.88-.71-2.7-.53-.93-1.51-1.51-2.54-1.51-.67,0-1.33.24-1.85.68l-.72.6c-.68.57-1.07,1.41-1.07,2.32,0,1.22.7,2.3,1.79,2.76Zm-.14-4.33l.72-.6c.36-.3.81-.47,1.28-.47.71,0,1.39.4,1.75,1.04.38.67.58,1.43.58,2.2,0,.86-.67,1.56-1.5,1.56h-.86c-.51,0-1.02-.1-1.49-.3-.73-.31-1.21-1.04-1.21-1.87,0-.61.26-1.19.72-1.57h0Z"/><path class="cls-58" d="m55.63,27.45c-.47.81-.71,1.75-.71,2.7,0,1.39,1.08,2.53,2.41,2.53h.86c.63,0,1.25-.12,1.83-.37,1.08-.45,1.79-1.54,1.79-2.76,0-.91-.39-1.75-1.07-2.32l-.72-.6c-.52-.44-1.18-.68-1.85-.68-1.03,0-2.01.58-2.54,1.51Zm2.54-.54c.46,0,.92.17,1.28.47l.72.6c.46.38.72.96.72,1.57,0,.83-.47,1.56-1.21,1.87-.48.2-.98.3-1.49.3h-.86c-.82,0-1.5-.7-1.5-1.56,0-.78.2-1.54.58-2.2.37-.64,1.04-1.04,1.75-1.04h0Z"/><path class="cls-57" d="m60.94,34.35c-.33.34-.51.8-.51,1.28,0,.76.59,1.37,1.31,1.37.39,0,.74-.17.99-.47.24.29.6.47.99.47.72,0,1.31-.62,1.31-1.37,0-.48-.18-.94-.51-1.28-.3-.31-.51-.7-.61-1.13l-.27-1.14c-.05-.2-.2-.34-.4-.36-.19-.02-.37.08-.46.26l-.05.1-.05-.1c-.09-.18-.27-.28-.46-.26-.19.02-.35.17-.4.36l-.27,1.14c-.1.43-.32.82-.61,1.13Zm1.49-.83c.16.15.44.15.61,0,.15.57.44,1.09.84,1.51.15.16.24.37.24.6s-.18.41-.39.41c-.15,0-.28-.09-.35-.23l-.22-.47c-.08-.16-.24-.27-.41-.27s-.33.1-.41.27l-.22.47c-.07.14-.2.23-.35.23-.22,0-.39-.18-.39-.41s.08-.44.24-.6c.4-.42.69-.94.84-1.51Z"/><path class="cls-60" d="m70.33,25.9l.07.02.29-.91-.06-.02c-.6-.21-1-.79-1-1.45,0-.24.05-.47.15-.68l.72-1.5-.82-.43-.72,1.5c-.16.34-.25.73-.25,1.11,0,1.07.65,2.02,1.63,2.36h0Z"/><path class="cls-59" d="m55.13,25.9c.97-.34,1.63-1.29,1.63-2.36,0-.38-.09-.77-.25-1.11l-.72-1.5-.82.43.72,1.5c.1.21.15.45.15.68,0,.66-.4,1.24-1,1.45l-.07.02.29.91.07-.02h0Z"/></g></g></svg>